<?xml version="1.0" encoding="UTF-8" standalone="no"?>
<svg
   xmlns:dc="http://purl.org/dc/elements/1.1/"
   xmlns:cc="http://creativecommons.org/ns#"
   xmlns:rdf="http://www.w3.org/1999/02/22-rdf-syntax-ns#"
   xmlns:svg="http://www.w3.org/2000/svg"
   xmlns="http://www.w3.org/2000/svg"
   xmlns:sodipodi="http://sodipodi.sourceforge.net/DTD/sodipodi-0.dtd"
   xmlns:inkscape="http://www.inkscape.org/namespaces/inkscape"
   height="33.000023"
   width="144.75523"
   inkscape:version="1.0 (4035a4fb49, 2020-05-01)"
   inkscape:export-ydpi="397.91309"
   inkscape:export-xdpi="397.91309"
   inkscape:export-filename="C:\Users\Dan\@populace\logo360.png"
   sodipodi:docname="CometLogoSvg.svg"
   xml:space="preserve"
   viewBox="0 0 144.75523 33.000023"
   y="0px"
   x="0px"
   id="Layer_1"
   version="1.1"><metadata
   id="metadata50"><rdf:RDF><cc:Work
       rdf:about=""><dc:format>image/svg+xml</dc:format><dc:type
         rdf:resource="http://purl.org/dc/dcmitype/StillImage" /><dc:title></dc:title></cc:Work></rdf:RDF></metadata><defs
   id="defs48" /><sodipodi:namedview
   fit-margin-bottom="2"
   fit-margin-right="2"
   fit-margin-left="2"
   fit-margin-top="2"
   showguides="true"
   inkscape:current-layer="Layer_1"
   inkscape:window-maximized="1"
   inkscape:window-y="-8"
   inkscape:window-x="-8"
   inkscape:cy="41.525842"
   inkscape:cx="122.69565"
   inkscape:zoom="3.7565048"
   showgrid="false"
   id="namedview46"
   inkscape:window-height="1017"
   inkscape:window-width="1920"
   inkscape:pageshadow="2"
   inkscape:pageopacity="1"
   guidetolerance="10"
   gridtolerance="10"
   objecttolerance="10"
   borderopacity="1"
   bordercolor="#666666"
   pagecolor="#202124"
   inkscape:document-rotation="0" />
<g
   transform="rotate(19,50.837213,97.373321)"
   id="g35">
	<path
   d="M 38.951172,1 23,12 27,5 7.3457031,16.046875 l -0.7402343,0.417969 0.017578,0.01953 c -3.405,2.168 -5.67187502,5.966734 -5.67187502,10.302734 0,6.744 5.47079692,12.212891 12.21679722,12.212891 4.047,0 7.623703,-1.977766 9.845703,-5.009766 l 0.130859,-0.173828 C 23.550531,33.241406 35,16 35,16 l -7,3 z"
   style="fill:#ff9800;fill-opacity:1"
   id="path31" />
	
</g>
<path
   id="path37"
   d="m 42.184667,24.202559 0.02927,-0.01742 7.46264,-4.386378 -3.336782,-0.598984 -2.155493,-0.386835 1.704838,-1.375921 7.657432,-6.180718 -8.97136,1.973743 -2.672046,0.588108 1.662723,-2.172005 1.989501,-2.5988715 -8.892747,2.5962525 -0.03996,0.01162 -0.04088,0.0081 c -0.404974,0.08266 -0.788094,0.193991 -1.139842,0.330934 l -0.06985,0.02777 -0.07321,0.01604 c -0.192706,0.04364 -0.256323,0.08096 -0.25919,0.08314 l -0.109844,0.107072 -0.101268,0.03916 c -1.644707,0.826568 -2.877724,2.23592 -3.47449,3.969056 -1.256693,3.649701 0.689951,7.640914 4.339653,8.897607 1.843762,0.634858 3.81486,0.479099 5.550611,-0.439863 l 0.139882,-0.07452 0.15617,-0.02661 0.280121,-0.153145 c 0.121854,-0.07438 0.228813,-0.145429 0.335151,-0.217749 z"
   style="fill:#ffe0b2;fill-opacity:1" />
<g
   transform="translate(26.873005,-5.8401025)"
   id="g43">
	
	
</g>
<text
   id="text883"
   y="30.613358"
   x="1.0333326"
   style="font-size:38.6667px;line-height:1.25;font-family:'Fredoka One';-inkscape-font-specification:'Fredoka One';fill:#ef5350;fill-opacity:1"
   xml:space="preserve"><tspan
     style="font-size:38.6667px;fill:#ef5350;fill-opacity:1"
     y="30.613358"
     x="1.0333326"
     id="tspan881"
     sodipodi:role="line">C   MET</tspan></text></svg>
