<?xml version="1.0" encoding="UTF-8" standalone="no"?>
<svg
   xmlns:dc="http://purl.org/dc/elements/1.1/"
   xmlns:cc="http://creativecommons.org/ns#"
   xmlns:rdf="http://www.w3.org/1999/02/22-rdf-syntax-ns#"
   xmlns:svg="http://www.w3.org/2000/svg"
   xmlns="http://www.w3.org/2000/svg"
   xmlns:sodipodi="http://sodipodi.sourceforge.net/DTD/sodipodi-0.dtd"
   xmlns:inkscape="http://www.inkscape.org/namespaces/inkscape"
   version="1.1"
   id="Layer_1"
   x="0px"
   y="0px"
   viewBox="0 0 144.75523 33.000023"
   xml:space="preserve"
   sodipodi:docname="CometLogoSvg.svg"
   inkscape:export-filename="C:\Users\Dan\@populace\logo360.png"
   inkscape:export-xdpi="397.91309"
   inkscape:export-ydpi="397.91309"
   inkscape:version="1.0 (4035a4fb49, 2020-05-01)"
   width="144.75523"
   height="33.000023"><metadata
   id="metadata50"><rdf:RDF><cc:Work
       rdf:about=""><dc:format>image/svg+xml</dc:format><dc:type
         rdf:resource="http://purl.org/dc/dcmitype/StillImage" /><dc:title /></cc:Work></rdf:RDF></metadata><defs
   id="defs48" /><sodipodi:namedview
   inkscape:document-rotation="0"
   pagecolor="#202124"
   bordercolor="#666666"
   borderopacity="1"
   objecttolerance="10"
   gridtolerance="10"
   guidetolerance="10"
   inkscape:pageopacity="1"
   inkscape:pageshadow="2"
   inkscape:window-width="1920"
   inkscape:window-height="1017"
   id="namedview46"
   showgrid="false"
   inkscape:zoom="3.7565048"
   inkscape:cx="112.04745"
   inkscape:cy="41.525842"
   inkscape:window-x="-8"
   inkscape:window-y="-8"
   inkscape:window-maximized="1"
   inkscape:current-layer="Layer_1"
   showguides="true"
   fit-margin-top="2"
   fit-margin-left="2"
   fit-margin-right="2"
   fit-margin-bottom="2" />
<g
   id="g35"
   transform="rotate(19,50.837213,97.373321)">
	<path
   id="path31"
   style="fill:#ff9800;fill-opacity:1"
   d="M 38.951172,1 23,12 27,5 7.3457031,16.046875 l -0.7402343,0.417969 0.017578,0.01953 c -3.405,2.168 -5.67187502,5.966734 -5.67187502,10.302734 0,6.744 5.47079692,12.212891 12.21679722,12.212891 4.047,0 7.623703,-1.977766 9.845703,-5.009766 l 0.130859,-0.173828 C 23.550531,33.241406 35,16 35,16 l -7,3 z" />
	
</g>
<path
   style="fill:#ffe0b2;fill-opacity:1"
   d="m 42.184667,24.202559 0.02927,-0.01742 7.46264,-4.386378 -3.336782,-0.598984 -2.155493,-0.386835 1.704838,-1.375921 7.657432,-6.180718 -8.97136,1.973743 -2.672046,0.588108 1.662723,-2.172005 1.989501,-2.5988715 -8.892747,2.5962525 -0.03996,0.01162 -0.04088,0.0081 c -0.404974,0.08266 -0.788094,0.193991 -1.139842,0.330934 l -0.06985,0.02777 -0.07321,0.01604 c -0.192706,0.04364 -0.256323,0.08096 -0.25919,0.08314 l -0.109844,0.107072 -0.101268,0.03916 c -1.644707,0.826568 -2.877724,2.23592 -3.47449,3.969056 -1.256693,3.649701 0.689951,7.640914 4.339653,8.897607 1.843762,0.634858 3.81486,0.479099 5.550611,-0.439863 l 0.139882,-0.07452 0.15617,-0.02661 0.280121,-0.153145 c 0.121854,-0.07438 0.228813,-0.145429 0.335151,-0.217749 z"
   id="path37" />
<g
   id="g43"
   transform="translate(26.873005,-5.8401025)">
	
	
</g>
<g
   style="font-size:38.6667px;line-height:1.25;font-family:'Fredoka One';-inkscape-font-specification:'Fredoka One';fill:#ef5350;fill-opacity:1"
   id="text883"
   aria-label="C   MET"><path
     id="path21"
     style="font-size:38.6667px;fill:#ef5350;fill-opacity:1"
     d="m 20.289348,23.189351 0.696001,-0.502667 q 1.314668,-0.773334 1.856002,-0.773334 1.198667,0 2.590668,2.165336 0.850668,1.353334 0.850668,2.165335 0,0.812 -0.541334,1.353334 -0.502667,0.541334 -1.198668,0.966668 -0.696,0.425333 -1.353334,0.812 -0.618667,0.386667 -2.590669,1.005334 -1.972002,0.618668 -3.828003,0.618668 -1.817335,0 -3.712003,-0.464001 Q 11.202674,30.033357 9.192006,28.912023 7.2200043,27.752022 5.6346697,26.128021 4.0493351,24.465352 3.0053342,21.91335 2,19.322682 2,16.306679 2,13.290677 3.0053342,10.854675 4.0106684,8.3800059 5.5573363,6.7946713 7.1426709,5.17067 9.1533393,4.0880024 12.942676,2.0000007 16.770679,2.0000007 q 1.817335,0 3.673336,0.5800005 1.894668,0.5413337 2.861336,1.1213342 l 0.928001,0.5413338 q 0.696,0.4253337 1.082667,0.6960006 1.005334,0.8120006 1.005334,1.8560015 0,1.0053342 -0.812,2.1266684 -1.508002,2.0880013 -2.706669,2.0880013 -0.696001,0 -1.972002,-0.850667 -1.624001,-1.3146677 -4.33067,-1.3146677 -2.513335,0 -4.949337,1.7400017 -1.160001,0.850667 -1.9333354,2.397335 -0.7733339,1.546668 -0.7733339,3.51867 0,1.933335 0.7733339,3.480002 0.7733344,1.546668 1.9720014,2.436002 2.358669,1.701335 4.910671,1.701335 1.198668,0 2.242668,-0.309333 1.082668,-0.309334 1.546668,-0.618668 z" /><path
     id="path23"
     style="font-size:38.6667px;fill:#ef5350;fill-opacity:1"
     d="m 88.435779,3.3533351 q 0.309334,0.5800005 0.348001,1.0440009 0.07733,0.4640004 0.07733,1.3533344 V 27.210688 q 0,2.668002 -1.469334,3.132003 -0.734668,0.232 -1.856002,0.232 -1.121334,0 -1.778668,-0.193334 -0.657334,-0.193333 -1.005334,-0.464 -0.348001,-0.270667 -0.541334,-0.773334 -0.193334,-0.657334 -0.193334,-2.010668 V 14.180011 q -0.966667,1.198667 -2.822669,3.828003 -1.856001,2.590669 -2.358668,3.248003 -0.502667,0.657333 -0.696001,0.928 -0.193333,0.232 -0.966667,0.696001 -0.734667,0.425334 -1.624002,0.425334 -0.850667,0 -1.585334,-0.386667 -0.696001,-0.425334 -1.005334,-0.812001 L 70.649098,21.68135 Q 69.875764,20.714683 67.594429,17.58268 65.313094,14.412011 65.11976,14.180011 v 13.030677 q 0,0.889334 -0.07733,1.353335 -0.03867,0.425333 -0.348,0.966667 -0.580001,1.044001 -3.016003,1.044001 -2.358669,0 -2.938669,-1.044001 -0.309334,-0.541334 -0.386667,-1.005334 -0.03867,-0.464001 -0.03867,-1.392001 V 5.673337 q 0,-0.889334 0.03867,-1.3146677 0.07733,-0.4640004 0.386667,-1.0440009 0.58,-1.0053341 3.016002,-1.0053341 1.044001,0 1.778669,0.2706669 0.773334,0.2320002 1.005334,0.502667 l 0.232,0.2320002 8.77734,11.5226766 q 6.573339,-8.7000076 8.777341,-11.4840099 0.657334,-1.0440008 3.093336,-1.0440008 2.474669,0 3.016002,1.0440008 z" /><path
     id="path25"
     style="font-size:38.6667px;fill:#ef5350;fill-opacity:1"
     d="m 98.765223,23.769352 h 11.909347 q 0.88933,0 1.31466,0.07733 0.464,0.03867 1.044,0.348001 1.04401,0.541333 1.04401,3.016002 0,2.706669 -1.43067,3.170669 -0.65734,0.232001 -2.01067,0.232001 H 95.323887 q -2.706669,0 -3.170669,-1.469335 -0.232,-0.618667 -0.232,-1.972002 V 5.673337 q 0,-1.9720016 0.734667,-2.6680022 0.734667,-0.7346672 2.784002,-0.7346672 h 15.234683 q 0.88933,0 1.31466,0.077333 0.464,0.038667 1.044,0.3480003 1.04401,0.5413337 1.04401,3.0160024 0,2.7066689 -1.43067,3.1706693 -0.65734,0.2320002 -2.01067,0.2320002 H 98.765223 V 13.02001 h 7.656007 q 0.88933,0 1.31467,0.07733 0.464,0.03867 1.044,0.348 1.044,0.541334 1.044,3.016003 0,2.706669 -1.46934,3.170669 -0.65733,0.232 -2.01066,0.232 h -7.578677 z" /><path
     id="path27"
     style="font-size:38.6667px;fill:#ef5350;fill-opacity:1"
     d="m 118.47255,2.2320009 h 21.49869 q 1.23733,0 1.81733,0.3093336 0.58,0.2706669 0.77334,0.889334 0.19333,0.6186672 0.19333,1.6240014 0,1.0053341 -0.19333,1.6240013 -0.19334,0.5800005 -0.65734,0.8120007 -0.696,0.3480003 -1.972,0.3480003 h -7.38534 V 27.288021 q 0,0.889335 -0.0773,1.314668 -0.0387,0.425334 -0.348,1.005334 -0.27067,0.541334 -1.00534,0.773334 -0.73466,0.232001 -1.93333,0.232001 -1.19867,0 -1.93333,-0.232001 -0.69601,-0.232 -1.00534,-0.773334 -0.27067,-0.58 -0.348,-1.005334 -0.0387,-0.464 -0.0387,-1.353334 V 7.8386722 h -7.424 q -1.23734,0 -1.81734,-0.2706669 -0.58,-0.3093336 -0.77333,-0.9280008 -0.19333,-0.6186672 -0.19333,-1.6240013 0,-1.0053342 0.19333,-1.5853347 0.19333,-0.6186671 0.65733,-0.8506673 0.696,-0.3480003 1.972,-0.3480003 z" /></g></svg>
